<svg width="174" height="30" viewBox="0 0 174 30" fill="none" xmlns="http://www.w3.org/2000/svg">
<path d="M15.9493 1.69453L19.104 8.88984C19.2227 9.16063 19.4118 9.39461 19.6518 9.56735C19.8917 9.74009 20.1736 9.84525 20.4681 9.87187L28.1532 10.5609C29.0228 10.6875 29.3696 11.7539 28.7392 12.368L22.9501 17.2312C22.4814 17.625 22.2681 18.2437 22.397 18.8414L24.0798 26.7188C24.2275 27.5836 23.3204 28.2445 22.5423 27.8344L15.8345 23.9062C15.5815 23.7578 15.2935 23.6795 15.0001 23.6795C14.7068 23.6795 14.4187 23.7578 14.1657 23.9062L7.45792 27.832C6.68214 28.2398 5.77277 27.5812 5.92042 26.7164L7.60323 18.8391C7.7298 18.2414 7.51886 17.6227 7.05011 17.2289L1.2587 12.3703C0.630578 11.7586 0.977453 10.6898 1.84464 10.5633L9.5298 9.87422C9.82425 9.8476 10.1062 9.74243 10.3461 9.56969C10.586 9.39696 10.7752 9.16298 10.8939 8.89219L14.0485 1.69688C14.44 0.909375 15.5603 0.909375 15.9493 1.69453Z" fill="#FDD835"/>
<path d="M15.7198 9.32108L15.1854 4.01952C15.1643 3.72421 15.1034 3.21796 15.5768 3.21796C15.9518 3.21796 16.1557 3.99843 16.1557 3.99843L17.7588 8.25468C18.3635 9.87421 18.1151 10.4297 17.5315 10.7578C16.8612 11.1328 15.8721 10.8398 15.7198 9.32108Z" fill="#FFFF8D"/>
<path d="M22.3313 16.7602L26.9298 13.1719C27.1571 12.982 27.5673 12.6797 27.2391 12.3352C26.979 12.0633 26.2758 12.4547 26.2758 12.4547L22.2516 14.0274C21.0516 14.4422 20.2548 15.0563 20.1844 15.8297C20.093 16.8609 21.0188 17.6555 22.3313 16.7602Z" fill="#F4B400"/>
<path d="M87.9493 1.69453L91.104 8.88984C91.2227 9.16063 91.4118 9.39461 91.6518 9.56735C91.8917 9.74009 92.1736 9.84525 92.4681 9.87187L100.153 10.5609C101.023 10.6875 101.37 11.7539 100.739 12.368L94.9501 17.2312C94.4814 17.625 94.2681 18.2437 94.397 18.8414L96.0798 26.7188C96.2275 27.5836 95.3204 28.2445 94.5423 27.8344L87.8345 23.9062C87.5815 23.7578 87.2935 23.6795 87.0001 23.6795C86.7068 23.6795 86.4187 23.7578 86.1657 23.9062L79.4579 27.832C78.6821 28.2398 77.7728 27.5812 77.9204 26.7164L79.6032 18.8391C79.7298 18.2414 79.5189 17.6227 79.0501 17.2289L73.2587 12.3703C72.6306 11.7586 72.9775 10.6898 73.8446 10.5633L81.5298 9.87422C81.8242 9.8476 82.1062 9.74243 82.3461 9.56969C82.586 9.39696 82.7752 9.16298 82.8939 8.89219L86.0485 1.69688C86.44 0.909375 87.5603 0.909375 87.9493 1.69453Z" fill="#FDD835"/>
<path d="M87.7198 9.32108L87.1854 4.01952C87.1643 3.72421 87.1034 3.21796 87.5768 3.21796C87.9518 3.21796 88.1557 3.99843 88.1557 3.99843L89.7588 8.25468C90.3635 9.87421 90.1151 10.4297 89.5315 10.7578C88.8612 11.1328 87.8721 10.8398 87.7198 9.32108Z" fill="#FFFF8D"/>
<path d="M94.3313 16.7602L98.9298 13.1719C99.1571 12.982 99.5673 12.6797 99.2391 12.3352C98.979 12.0633 98.2758 12.4547 98.2758 12.4547L94.2516 14.0274C93.0516 14.4422 92.2548 15.0563 92.1844 15.8297C92.093 16.8609 93.0188 17.6555 94.3313 16.7602Z" fill="#F4B400"/>
<path d="M51.9493 1.69453L55.104 8.88984C55.2227 9.16063 55.4118 9.39461 55.6518 9.56735C55.8917 9.74009 56.1736 9.84525 56.4681 9.87187L64.1532 10.5609C65.0228 10.6875 65.3696 11.7539 64.7392 12.368L58.9501 17.2312C58.4814 17.625 58.2681 18.2437 58.397 18.8414L60.0798 26.7188C60.2275 27.5836 59.3204 28.2445 58.5423 27.8344L51.8345 23.9062C51.5815 23.7578 51.2935 23.6795 51.0001 23.6795C50.7068 23.6795 50.4187 23.7578 50.1657 23.9062L43.4579 27.832C42.6821 28.2398 41.7728 27.5812 41.9204 26.7164L43.6032 18.8391C43.7298 18.2414 43.5189 17.6227 43.0501 17.2289L37.2587 12.3703C36.6306 11.7586 36.9775 10.6898 37.8446 10.5633L45.5298 9.87422C45.8242 9.8476 46.1062 9.74243 46.3461 9.56969C46.586 9.39696 46.7752 9.16298 46.8939 8.89219L50.0485 1.69688C50.44 0.909375 51.5603 0.909375 51.9493 1.69453Z" fill="#FDD835"/>
<path d="M51.7198 9.32108L51.1854 4.01952C51.1643 3.72421 51.1034 3.21796 51.5768 3.21796C51.9518 3.21796 52.1557 3.99843 52.1557 3.99843L53.7588 8.25468C54.3635 9.87421 54.1151 10.4297 53.5315 10.7578C52.8612 11.1328 51.8721 10.8398 51.7198 9.32108Z" fill="#FFFF8D"/>
<path d="M58.3313 16.7602L62.9298 13.1719C63.1571 12.982 63.5673 12.6797 63.2391 12.3352C62.979 12.0633 62.2758 12.4547 62.2758 12.4547L58.2516 14.0274C57.0516 14.4422 56.2548 15.0563 56.1844 15.8297C56.093 16.8609 57.0188 17.6555 58.3313 16.7602Z" fill="#F4B400"/>
<path d="M123.949 1.69453L127.104 8.88984C127.223 9.16063 127.412 9.39461 127.652 9.56735C127.892 9.74009 128.174 9.84525 128.468 9.87187L136.153 10.5609C137.023 10.6875 137.37 11.7539 136.739 12.368L130.95 17.2312C130.481 17.625 130.268 18.2437 130.397 18.8414L132.08 26.7188C132.227 27.5836 131.32 28.2445 130.542 27.8344L123.834 23.9062C123.581 23.7578 123.293 23.6795 123 23.6795C122.707 23.6795 122.419 23.7578 122.166 23.9062L115.458 27.832C114.682 28.2398 113.773 27.5812 113.92 26.7164L115.603 18.8391C115.73 18.2414 115.519 17.6227 115.05 17.2289L109.259 12.3703C108.631 11.7586 108.977 10.6898 109.845 10.5633L117.53 9.87422C117.824 9.8476 118.106 9.74243 118.346 9.56969C118.586 9.39696 118.775 9.16298 118.894 8.89219L122.049 1.69688C122.44 0.909375 123.56 0.909375 123.949 1.69453Z" fill="#FDD835"/>
<path d="M123.72 9.32108L123.185 4.01952C123.164 3.72421 123.103 3.21796 123.577 3.21796C123.952 3.21796 124.156 3.99843 124.156 3.99843L125.759 8.25468C126.364 9.87421 126.115 10.4297 125.531 10.7578C124.861 11.1328 123.872 10.8398 123.72 9.32108Z" fill="#FFFF8D"/>
<path d="M130.331 16.7602L134.93 13.1719C135.157 12.982 135.567 12.6797 135.239 12.3352C134.979 12.0633 134.276 12.4547 134.276 12.4547L130.252 14.0274C129.052 14.4422 128.255 15.0563 128.184 15.8297C128.093 16.8609 129.019 17.6555 130.331 16.7602Z" fill="#F4B400"/>
<path d="M159.949 1.69453L163.104 8.88984C163.223 9.16063 163.412 9.39461 163.652 9.56735C163.892 9.74009 164.174 9.84525 164.468 9.87187L172.153 10.5609C173.023 10.6875 173.37 11.7539 172.739 12.368L166.95 17.2312C166.481 17.625 166.268 18.2437 166.397 18.8414L168.08 26.7188C168.227 27.5836 167.32 28.2445 166.542 27.8344L159.834 23.9062C159.581 23.7578 159.293 23.6795 159 23.6795C158.707 23.6795 158.419 23.7578 158.166 23.9062L151.458 27.832C150.682 28.2398 149.773 27.5812 149.92 26.7164L151.603 18.8391C151.73 18.2414 151.519 17.6227 151.05 17.2289L145.259 12.3703C144.631 11.7586 144.977 10.6898 145.845 10.5633L153.53 9.87422C153.824 9.8476 154.106 9.74243 154.346 9.56969C154.586 9.39696 154.775 9.16298 154.894 8.89219L158.049 1.69688C158.44 0.909375 159.56 0.909375 159.949 1.69453Z" fill="#FDD835"/>
<path d="M159.72 9.32108L159.185 4.01952C159.164 3.72421 159.103 3.21796 159.577 3.21796C159.952 3.21796 160.156 3.99843 160.156 3.99843L161.759 8.25468C162.364 9.87421 162.115 10.4297 161.531 10.7578C160.861 11.1328 159.872 10.8398 159.72 9.32108Z" fill="#FFFF8D"/>
<path d="M166.331 16.7602L170.93 13.1719C171.157 12.982 171.567 12.6797 171.239 12.3352C170.979 12.0633 170.276 12.4547 170.276 12.4547L166.252 14.0274C165.052 14.4422 164.255 15.0563 164.184 15.8297C164.093 16.8609 165.019 17.6555 166.331 16.7602Z" fill="#F4B400"/>
</svg>
